<mxfile host="app.diagrams.net" modified="2023-10-24T19:17:21.893Z" agent="Mozilla/5.0 (Windows NT 10.0; Win64; x64) AppleWebKit/537.36 (KHTML, like Gecko) Chrome/118.0.0.0 Safari/537.36" version="22.0.7" etag="ijuXHc8TF7G0TWElG36L" type="github">
  <diagram name="Page-1" id="inR9e7gSpNBO2dcykJJt">
    <mxGraphModel>
      <root>
        <mxCell id="0" />
        <mxCell id="1" parent="0" />
      </root>
    </mxGraphModel>
  </diagram>
</mxfile>
